<svg width="32" height="37" fill="none" xmlns="http://www.w3.org/2000/svg"><path d="M14.334 28.803a.613.613 0 00.87 0 .617.617 0 000-.872l-6.153-6.167a.617.617 0 00-.87.872l6.153 6.167zm9.231-3.083l.795.797-.795.797a.617.617 0 00.87.872l.796-.797.795.797a.613.613 0 00.87 0 .617.617 0 000-.872l-.795-.797.796-.798a.617.617 0 00-.87-.872l-.796.798-.796-.798a.617.617 0 00-.87.872zm-5.104-6.603c0 1.02.829 1.85 1.847 1.85a1.85 1.85 0 000-3.7 1.85 1.85 0 00-1.847 1.85zm2.462 0c0 .34-.276.616-.615.616a.617.617 0 010-1.233c.339 0 .615.277.615.617zm-.18-9.069a.615.615 0 00-.87 0l-2.462 2.466a.617.617 0 00.87.872l1.411-1.414v3.445a.616.616 0 101.231 0v-3.445l1.411 1.414a.613.613 0 00.87 0 .617.617 0 000-.872l-2.46-2.466zM6.77 17.267a1.85 1.85 0 000 3.7 1.85 1.85 0 000-3.7zm0 2.467a.617.617 0 010-1.234.617.617 0 010 1.234zm.795-7.581l.796.797-.796.798a.617.617 0 00.87.872l.796-.798.796.798a.613.613 0 00.87 0 .617.617 0 000-.872l-.796-.798.796-.797a.617.617 0 00-.87-.872l-.796.797-.796-.797a.617.617 0 00-.87.872zM9.23 7.4h13.54a.616.616 0 00.615-.617v-3.7a.616.616 0 00-.616-.616h-3.287A3.707 3.707 0 0016 0a3.707 3.707 0 00-3.482 2.467H9.231a.616.616 0 00-.616.616v3.7c0 .34.276.617.616.617zm.616-3.7h3.14a.616.616 0 00.602-.494A2.47 2.47 0 0116 1.233c1.166 0 2.18.83 2.412 1.973.058.288.31.494.603.494h3.139v2.467H9.846V3.7z" fill="#414141"/><path d="M28.923 2.467h-3.692a.616.616 0 000 1.233h3.692c.897 0 1.846.95 1.846 1.85v28.367c0 .899-.949 1.85-1.846 1.85H3.077c-.897 0-1.846-.951-1.846-1.85V5.55c0-.9.949-1.85 1.846-1.85h3.692a.616.616 0 000-1.233H3.077C1.495 2.467 0 3.965 0 5.55v28.367C0 35.5 1.495 37 3.077 37h25.846C30.505 37 32 35.502 32 33.917V5.55c0-1.585-1.495-3.083-3.077-3.083z" fill="#414141"/><path d="M16.615 33.3a1.85 1.85 0 000-3.7 1.85 1.85 0 000 3.7zm0-2.466a.617.617 0 010 1.233.617.617 0 010-1.233zm0-11.101a.616.616 0 000-1.233h-6.153a.616.616 0 000 1.233h6.153zM16 2.467a1.233 1.233 0 000 2.466 1.233 1.233 0 000-2.466z" fill="#414141"/></svg>