<svg width="42" height="30" fill="none" xmlns="http://www.w3.org/2000/svg"><path d="M24.791 14.514h-1.14v-2.517c0-2.641-2.2-4.79-4.904-4.79-2.704 0-4.904 2.149-4.904 4.79v2.518h-1.14a.718.718 0 00-.726.71v10.464c0 .392.325.71.727.71H24.79a.718.718 0 00.727-.71V15.224a.718.718 0 00-.727-.71zm-9.495-2.517c0-1.858 1.549-3.37 3.451-3.37 1.903 0 3.451 1.512 3.451 3.37v2.518h-6.902v-2.518zm8.768 12.982H13.43v-9.045h10.634v9.045z" fill="#414141"/><path d="M18.02 21.378v1.724c0 .392.326.71.727.71a.718.718 0 00.727-.71v-1.724c.878-.295 1.511-1.11 1.511-2.067 0-1.205-1.004-2.186-2.238-2.186-1.233 0-2.237.981-2.237 2.186 0 .957.633 1.772 1.51 2.067zm.727-2.833c.433 0 .785.344.785.766a.776.776 0 01-.785.767.776.776 0 01-.784-.767c0-.422.352-.766.784-.766z" fill="#414141"/><path d="M41.571 8.502a2 2 0 00-1.566-.742h-2.51V5.208c0-.993-.827-1.801-1.844-1.801H18.104a.287.287 0 01-.27-.186L17.08 1.16A1.792 1.792 0 0015.395 0H6.598c-.754 0-1.431.466-1.685 1.16l-.755 2.062a.286.286 0 01-.269.185H1.844C.827 3.407 0 4.215 0 5.207V28.2c0 .992.827 1.8 1.844 1.8H35.65c.98 0 1.781-.751 1.838-1.695l4.455-18.143a1.902 1.902 0 00-.373-1.66zm-5.53 19.697c0 .21-.175.381-.39.381H1.844a.387.387 0 01-.39-.381V5.208c0-.21.175-.382.39-.382h2.045c.733 0 1.391-.453 1.638-1.127l.754-2.061a.337.337 0 01.317-.219h8.797c.142 0 .27.088.317.219l.754 2.061a1.742 1.742 0 001.638 1.127h17.547c.215 0 .39.172.39.382v22.99zm4.49-18.368l-3.036 12.365V9.18h2.51a.54.54 0 01.425.2.51.51 0 01.101.45z" fill="#414141"/></svg>