<svg width="32" height="37" fill="none" xmlns="http://www.w3.org/2000/svg"><path d="M14.995.046c-1.465.253-2.734.864-3.751 1.802a6.832 6.832 0 00-2.096 3.829c-.16.849-.084 2.309.152 2.92.053.134.015.268-.175.61-.22.403-.235.484-.235 1.14 0 .648.015.745.235 1.162.296.559.555.864.896 1.072.205.127.266.21.266.38 0 .284.319 1.185.577 1.624.296.492 1.352 1.49 1.936 1.818l.494.275-.076.522c-.045.283-.114.543-.16.588-.037.037-.265.104-.493.15-1.64.297-3.106.736-4.442 1.332-1.268.559-1.967.939-2.08 1.147-.153.254-.054.566.197.663.182.067.357 0 1.42-.521 1.784-.872 3.63-1.467 5.429-1.75.395-.068.752-.15.79-.187.06-.06.182-.55.311-1.28l.046-.276.478.156c.835.268 2.111.209 3.037-.142.076-.022.122.135.198.678.121.85.22.961.919 1.036.607.067 2.407.514 3.25.797.668.23 2.042.79 2.179.893.046.03.357.194.706.358.57.29.638.305.835.216.16-.075.213-.156.228-.372.03-.328-.144-.477-1.123-.954a19.693 19.693 0 00-4.822-1.676l-1.14-.238-.09-.402c-.137-.648-.122-.775.098-.88.638-.282 1.785-1.295 2.187-1.936.22-.342.54-1.154.608-1.52.038-.208.167-.394.516-.737.66-.648.858-1.095.858-1.996 0-.626-.023-.76-.213-1.125-.205-.417-.205-.424-.09-.901.47-2.011-.061-4.164-1.466-5.877C20.516 1.379 19.11.53 17.653.18A5.691 5.691 0 0016.02 0c-.455.008-.919.03-1.025.046zm2.916 1.206a5.9 5.9 0 012.232 1.334c1.276 1.191 1.838 2.502 1.838 4.268 0 .782-.122 1.623-.243 1.75-.053.045-.911-.238-1.427-.47-.805-.364-1.36-.752-2.127-1.489-.79-.767-.957-.827-1.238-.454-.144.193-.144.208-.022.7.068.268.212.693.311.938.16.388.167.432.053.403-.068-.023-.273-.075-.448-.12-.478-.119-1.405-.55-1.936-.908-.266-.172-.767-.596-1.116-.931-.41-.395-.707-.619-.805-.619-.205 0-.699.35-1.192.827-.41.402-1.132 1.453-1.284 1.87-.053.156-.121.283-.152.283-.053 0-.273-.939-.334-1.453-.106-.894.296-2.413.889-3.389.66-1.087 1.913-2.093 3.12-2.495.897-.298 1.11-.328 2.18-.305.911.022 1.101.052 1.7.26zm-4.002 6.436c.926.752 2.567 1.437 3.751 1.564.813.09.942.06 1.071-.209.068-.156.06-.238-.06-.469-.213-.417-.22-.44-.023-.268.478.425 2.126 1.11 3.204 1.333a.37.37 0 01.288.246c.107.26.046.969-.113 1.266-.152.284-.623.73-.904.842-.22.09-.25.164-.311.804-.137 1.349-1.58 2.779-3.425 3.397-1.185.402-2.111.32-3.394-.298-1.003-.477-1.026-.499-1.64-1.087-.684-.67-.988-1.237-1.11-2.086-.083-.588-.098-.61-.364-.745-.432-.216-.873-.76-.964-1.192a3.576 3.576 0 01-.084-.536c.008-.164.008-.164.122-.015.266.358.342.41.592.41.137 0 .296-.045.342-.104.053-.06.144-.388.205-.73.16-.88.638-1.818 1.283-2.503l.509-.536.35.327c.197.18.5.447.675.589zM3.665 22.34c-.258.074-.751.364-.88.52-.054.06-.167.247-.266.41l-.167.298-.038 6.22-.038 6.22-1.063.037c-1.063.037-1.063.037-1.162.238-.137.29.007.559.364.656.19.052 5.612.067 15.795.06l15.506-.023.144-.179c.175-.208.19-.477.023-.633-.091-.097-.311-.12-1.132-.12h-1.025l-.015-6.167-.023-6.16-.197-.417a1.802 1.802 0 00-1.17-.953c-.364-.097-24.33-.104-24.656-.008zm24.535.99c.099.045.258.186.342.298.16.209.16.238.16 6.294v6.085l-12.697.023-12.704.022v-6.078c0-6.674-.023-6.331.448-6.614.182-.112 1.238-.12 12.233-.127 9.4 0 12.074.023 12.218.097z" fill="#414141"/><path d="M15.565 27.859c-.456.104-.881.432-1.162.886-.236.38-.25.447-.228.938.03.693.304 1.155.896 1.498.35.208.486.245.888.245.767 0 1.276-.29 1.67-.953.274-.454.29-1.17.046-1.624-.227-.424-.736-.826-1.192-.96-.417-.127-.486-.127-.918-.03zm1.047 1.169a.842.842 0 01-.288 1.393c-.342.141-.676.074-.957-.201-.402-.402-.258-1.14.273-1.37a.877.877 0 01.972.178z" fill="#414141"/></svg>