<svg width="16" height="17" fill="none" xmlns="http://www.w3.org/2000/svg"><path d="M10.708.045a4.462 4.462 0 00-2.022.904c-.126.1-2.073 1.875-4.328 3.94L.26 8.645l.173.187c.096.106.255.276.355.382l.18.19.106-.09c.063-.054 1.923-1.756 4.138-3.784C7.427 3.5 9.323 1.777 9.426 1.7c1.017-.767 2.471-.89 3.624-.309a3.552 3.552 0 011.757 2.045c.382 1.154.11 2.47-.708 3.4-.152.177-9.369 8.618-9.548 8.744a2.198 2.198 0 01-1.279.406c-.382 0-.664-.067-1.006-.236-1.09-.539-1.548-1.888-1.01-2.972a2.64 2.64 0 01.266-.426c.076-.09 2.135-1.994 4.577-4.232 3.28-3.005 4.49-4.092 4.616-4.155.405-.2.94-.054 1.199.329.14.202.183.362.166.635-.01.2-.03.272-.11.405-.073.117-1.212 1.18-4.025 3.754-2.159 1.974-3.926 3.607-3.926 3.623-.003.044.615.728.671.742.044.01 7.62-6.905 7.921-7.234.38-.406.582-1.041.512-1.59-.07-.528-.25-.884-.628-1.243-.777-.741-1.953-.738-2.783.007C8.237 4.716.854 11.515.732 11.664a3.276 3.276 0 00-.688 1.466c-.076.38-.05 1.134.053 1.493a3.3 3.3 0 001.77 2.094c.505.236.724.283 1.385.283.502 0 .621-.01.864-.076.355-.097.887-.36 1.146-.566.285-.232 9.296-8.484 9.512-8.71a4.751 4.751 0 001.149-2.187c.086-.373.103-1.267.036-1.68A4.52 4.52 0 0012.236.046c-.365-.06-1.202-.06-1.528 0z" fill="#414141"/></svg>